<svg xmlns="http://www.w3.org/2000/svg" width="46.694" height="52.781" viewBox="0 0 46.694 52.781"><defs><style>.a{fill:#f6f9f9;}.b{fill:#e7ecf1;}.c{fill:#fc8086;}.d{fill:#ffece3;}.e{fill:#ffddce;}.f{fill:#fcd0a3;}.g{fill:#ffb983;}.h{fill:#7c8b96;}.i{fill:#ddeafb;}</style></defs><g transform="translate(-29.524)"><g transform="translate(29.524 0)"><g transform="translate(0 0)"><path class="a" d="M60.7,45.933V8.806a3.335,3.335,0,0,1-2.6-3.254V.589a.4.4,0,0,0-.225-.36A2.485,2.485,0,0,0,56.824,0H32.806a3.282,3.282,0,0,0-3.282,3.282V45.558a3.282,3.282,0,0,0,3.282,3.282H58.994A3.333,3.333,0,0,0,60.7,45.933Z" transform="translate(-29.524 0)"/><path class="b" d="M301.365,87.486a3.293,3.293,0,0,1-.719-.08v36.548a3.282,3.282,0,0,1-3.282,3.282h6.528a3.282,3.282,0,0,0,3.282-3.282V88.516a2.484,2.484,0,0,0-.224-1.03Z" transform="translate(-269.753 -78.395)"/><path class="c" d="M312.7,10.311l-7.634-7.634a2.485,2.485,0,0,0-.728-.5V7.758a3.282,3.282,0,0,0,3.282,3.282h5.585A2.486,2.486,0,0,0,312.7,10.311Z" transform="translate(-276.01 -1.949)"/><g transform="translate(6.223 26.871)"><g transform="translate(1.82 2.137)"><path class="d" d="M127.375,286.395l.6-1.012-2.372-1.4c-1.564-.9-2.3-1.064-3.708-.518l-1.538.595a3.275,3.275,0,0,1-2.85-.237l-4.117-2.428-5.848,9.871,5.272,3.112a3.274,3.274,0,0,1,.924.818l1.777,2.3a20.444,20.444,0,0,0,4.306,3.406l1.845,1.093a2.184,2.184,0,0,0,1.213-2.419.433.433,0,0,1,.646-.457l.741.439a2.231,2.231,0,0,0,3.034-.705,2.192,2.192,0,0,0-.12-2.477.087.087,0,0,1,.113-.128l.9.539a2.193,2.193,0,0,0,2.911-3.149.1.1,0,0,1,.134-.146l1.149.681a2.245,2.245,0,0,0,2.756-.339,2.66,2.66,0,0,0,.573-1.027l-7.9-4.679A1.266,1.266,0,0,1,127.375,286.395Z" transform="translate(-107.542 -281.391)"/><path class="e" d="M260.175,393.268l-4.04-2.392a2.159,2.159,0,0,1-.54.971,2.234,2.234,0,0,1-2.524.458l-1.6-.948a.8.8,0,1,0-.812,1.371l1.23.728a2.2,2.2,0,0,1-2.983,1.475l-1.305-.773a.8.8,0,0,0-.812,1.371l1.22.723a2.189,2.189,0,0,1-.26.613,2.231,2.231,0,0,1-3.034.705l-.741-.439a.433.433,0,0,0-.646.457,2.185,2.185,0,0,1-1.286,2.452l5.152,3.052a1.924,1.924,0,0,0,2.641-.666,1.884,1.884,0,0,0-.679-2.55l2.076,1.23a1.924,1.924,0,0,0,2.641-.666,1.884,1.884,0,0,0-.679-2.55l1.37.811a1.924,1.924,0,0,0,2.641-.666,1.884,1.884,0,0,0-.679-2.55l1.686,1a1.924,1.924,0,0,0,2.641-.666A1.884,1.884,0,0,0,260.175,393.268Z" transform="translate(-228.176 -379.589)"/><path class="f" d="M287.143,291.674l-2.7-4.565-3.162,1.838a3.275,3.275,0,0,1-2.85.237l-1.735-.682a2.788,2.788,0,0,0-1.7-.108l-2.658.673a2.788,2.788,0,0,0-2.1,2.7v3.548a.91.91,0,0,0,.908.91,2.738,2.738,0,0,0,2.74-2.738v-.15l5.185,3.07Z" transform="translate(-253.455 -286.52)"/><g transform="translate(25.251 4.846)"><path class="g" d="M360.74,328.4l-8.255,4.837,6.545,3.876a3.274,3.274,0,0,1,.718-.576l4.317-2.522Z" transform="translate(-352.485 -328.398)"/></g><g transform="translate(3.103 12.092)"><path class="f" d="M142.125,401.668l-1.067,1.486a1.883,1.883,0,1,1-3.059-2.2l1.067-1.486a1.883,1.883,0,0,1,3.059,2.2Z" transform="translate(-137.646 -398.687)"/><path class="f" d="M172.98,407.067l-2.244,3.126a1.883,1.883,0,0,1-3.059-2.2l2.244-3.126a1.883,1.883,0,0,1,3.059,2.2Z" transform="translate(-164.264 -403.529)"/><path class="f" d="M202.658,428.373l-2.244,3.126a1.883,1.883,0,1,1-3.059-2.2l2.244-3.126a1.883,1.883,0,1,1,3.059,2.2Z" transform="translate(-190.882 -422.639)"/><path class="g" d="M235.693,463.15l-.746,1.039a1.883,1.883,0,1,1-3.059-2.2l.746-1.039a1.883,1.883,0,1,1,3.059,2.2Z" transform="translate(-221.855 -453.831)"/></g></g><path class="h" d="M99.761,261.774l-1.649-.977a.955.955,0,0,0-1.308.335l-6.781,11.446a.955.955,0,0,0,.335,1.308l1.649.977a2.328,2.328,0,0,0,3.19-.816l5.381-9.082A2.328,2.328,0,0,0,99.761,261.774Z" transform="translate(-89.889 -260.663)"/><path class="h" d="M378.431,260.8l-1.649.977a2.328,2.328,0,0,0-.816,3.19l5.381,9.082a2.328,2.328,0,0,0,3.19.816l1.649-.977a.955.955,0,0,0,.335-1.308l-6.781-11.446A.955.955,0,0,0,378.431,260.8Z" transform="translate(-346.182 -260.663)"/></g></g><g transform="translate(4.888 13.845)"><path class="i" d="M103.786,135.895H77.735a.8.8,0,1,1,0-1.594h26.052a.8.8,0,0,1,0,1.594Z" transform="translate(-76.938 -134.301)"/></g><g transform="translate(4.888 8.294)"><path class="i" d="M90.761,82.047H77.735a.8.8,0,0,1,0-1.594H90.761a.8.8,0,1,1,0,1.594Z" transform="translate(-76.938 -80.453)"/></g><g transform="translate(4.888 18.764)"><path class="i" d="M103.786,183.608H77.735a.8.8,0,0,1,0-1.594h26.052a.8.8,0,0,1,0,1.594Z" transform="translate(-76.938 -182.014)"/></g></g></g></svg>