<svg xmlns="http://www.w3.org/2000/svg" width="46.355" height="52.445" viewBox="0 0 46.355 52.445"><defs><style>.a{fill:#9bd8f9;}.b{fill:#469df5;}</style></defs><g transform="translate(-47.725 -20.42)"><path class="a" d="M109.179,70.027a2.55,2.55,0,0,1-2.02-1.991,1.1,1.1,0,0,0-.05-.212,4.23,4.23,0,0,0,.018-.433,2.8,2.8,0,0,1,.3-.895,1.113,1.113,0,0,0-.408-1.517l-13.748-7.94a1.113,1.113,0,0,0-1.518.4,2.389,2.389,0,0,1-1.549,1.123,1.472,1.472,0,0,0-.3.06,1.09,1.09,0,0,0-.674.1l-.011-.012.031-.155A1.394,1.394,0,0,0,89,58.519a2.7,2.7,0,0,1-1.286-1.075,1.113,1.113,0,0,0-1.518-.4L72.423,64.985a1.111,1.111,0,0,0-.521.679c-.164.624.218.78.4,1.642.036.4.023.409.036.506a2.1,2.1,0,0,0-.048.264,2.326,2.326,0,0,1-2.21,1.915A1.117,1.117,0,0,0,68.9,71.105V86.991A1.111,1.111,0,0,0,70.037,88.1a2.336,2.336,0,0,1,1.607.682,2.511,2.511,0,0,1,.691,1.5c-.019.14,0,.133-.025.4a3.553,3.553,0,0,1-.181.723,1.134,1.134,0,0,0,.3,1.706l6.9,3.972c7.237,4.122,6.889,4.123,7.427,4.123a1.112,1.112,0,0,0,.962-.552,2.344,2.344,0,0,1,2.017-1.136,2.641,2.641,0,0,1,1.6.6,2.346,2.346,0,0,1,.429.537,1.113,1.113,0,0,0,1.518.4l13.747-7.939a1.113,1.113,0,0,0,.409-1.517,3.9,3.9,0,0,1-.31-.826,2.5,2.5,0,0,0-.035-.618,1.9,1.9,0,0,0,.141-.418,2.431,2.431,0,0,1,2.045-1.651,1.111,1.111,0,0,0,1.292-1.1V71.1a1.111,1.111,0,0,0-1.385-1.078ZM90.846,60.7A4.538,4.538,0,0,0,93,59.453l12.063,6.967a3.066,3.066,0,0,0-.12.649h-14.1Zm-4.382-1.246a3.808,3.808,0,0,0,1.863,1.108,1.111,1.111,0,0,0,.293.136v6.373H74.51a3.345,3.345,0,0,0-.136-.639ZM71.128,86.023V72.073a4.523,4.523,0,0,0,1.135-.462L78.43,83.649,72.577,86.68A4.546,4.546,0,0,0,71.128,86.023Zm3.25,5.646a3.71,3.71,0,0,0,.133-1.524,3.872,3.872,0,0,0-.434-1.735l5.368-2.78,6.514,12.722Zm17.012,5.906a3.7,3.7,0,0,0-.551-.178l.006-14.9a1.113,1.113,0,0,0-1.112-1.113h0a1.113,1.113,0,0,0-1.113,1.112L88.614,97.4c-.125.038-.006.009-.4.146a1.1,1.1,0,0,0-.151.034L81.421,84.606l5.765-2.986a1.113,1.113,0,0,0-1.024-1.976l-5.757,2.981L73.938,70c.019-.033.035-.067.053-.1l12.236,8.15a1.113,1.113,0,1,0,1.258-1.836L77.1,69.294H88.62V75.6a1.113,1.113,0,0,0,2.226,0V69.294H105.2c.034.088.042.1.071.169L92.246,76.444A1.113,1.113,0,0,0,93.3,78.405l10.9-5.846L98.912,82.888l-5.625-3.135A1.113,1.113,0,0,0,92.2,81.7L97.9,84.871Zm13.628-7.648a1.57,1.57,0,0,0-.027,1.158,1.412,1.412,0,0,0,.076.591L93.487,98.365l6.355-12.41,5.317,2.964a1.659,1.659,0,0,0-.139,1.008Zm3.32-3.912a4.519,4.519,0,0,0-1.947,1.042l-5.535-3.085,6.328-12.357a4.4,4.4,0,0,0,1.153.462Z" transform="translate(-18.82 -32.412)"/><g transform="translate(47.725 20.42)"><circle class="b" cx="3.45" cy="3.45" r="3.45" transform="translate(19.738 0)"/><circle class="b" cx="3.45" cy="3.45" r="3.45" transform="translate(19.738 22.767)"/><circle class="b" cx="3.45" cy="3.45" r="3.45" transform="translate(39.456 11.381)"/><circle class="b" cx="3.45" cy="3.45" r="3.45" transform="translate(0 11.381)"/><circle class="b" cx="3.45" cy="3.45" r="3.45" transform="translate(19.738 45.545)"/><circle class="b" cx="3.45" cy="3.45" r="3.45" transform="translate(39.456 34.159)"/><circle class="b" cx="3.45" cy="3.45" r="3.45" transform="translate(0 34.159)"/></g></g></svg>