<svg xmlns="http://www.w3.org/2000/svg" width="54.967" height="44.336" viewBox="0 0 54.967 44.336"><defs><style>.a{fill:#f7f7f7;}.b{fill:#e8e8e8;}.c{fill:#aaa;}.d{fill:#9b9b9b;}.e{fill:#cdcdcd;}.f{fill:#bebebe;}.g{fill:#de5791;}.h{fill:#828282;}.i{fill:#92e0c4;}.j{fill:#77d1b3;}</style></defs><g transform="translate(0 -48.06)"><path class="a" d="M54.967,80.111V49.945a1.886,1.886,0,0,0-1.885-1.885H1.885A1.886,1.886,0,0,0,0,49.945V80.111Z" transform="translate(0)"/><path class="b" d="M453.27,48.06h-3.318a1.885,1.885,0,0,1,1.885,1.885v32.3a1.885,1.885,0,0,1-1.885,1.885h3.318a1.886,1.886,0,0,0,1.885-1.885v-32.3A1.886,1.886,0,0,0,453.27,48.06Z" transform="translate(-400.188)"/><path class="c" d="M185.158,374.234h14.011v4.987H185.158Z" transform="translate(-164.68 -290.1)"/><path class="d" d="M281.842,374.234h3.318v4.987h-3.318Z" transform="translate(-250.671 -290.1)"/><path class="e" d="M0,318.492v4.28a1.885,1.885,0,0,0,1.885,1.885h51.2a1.885,1.885,0,0,0,1.885-1.885v-4.28Z" transform="translate(0 -240.523)"/><path class="f" d="M451.837,318.492v4.279a1.885,1.885,0,0,1-1.885,1.885h3.318a1.886,1.886,0,0,0,1.885-1.885v-4.279Z" transform="translate(-400.188 -240.523)"/><circle class="f" cx="0.829" cy="0.829" r="0.829" transform="translate(26.654 80.222)"/><path class="e" d="M163.138,422.6H140.245a.592.592,0,0,1-.592-.592v-1.02a1.663,1.663,0,0,1,1.663-1.663h20.751a1.663,1.663,0,0,1,1.663,1.663v1.02A.592.592,0,0,1,163.138,422.6Z" transform="translate(-124.208 -330.206)"/><path class="g" d="M239.467,137.524H216.613v8.26h22.854a.727.727,0,0,0,.727-.727v-6.806A.727.727,0,0,0,239.467,137.524Z" transform="translate(-192.656 -79.569)"/><path class="h" d="M51.613,281.554l-.318-.058a2.1,2.1,0,0,1-1.683-2.439l4.977-17.711,4.44.815-4.977,17.711A2.1,2.1,0,0,1,51.613,281.554Z" transform="translate(-44.094 -189.697)"/><circle class="e" cx="11.421" cy="11.421" r="11.421" transform="translate(4.356 51.201)"/><circle class="i" cx="7.931" cy="7.931" r="7.931" transform="translate(4.559 62.621) rotate(-45)"/><path class="j" d="M130.676,108.135a7.906,7.906,0,0,0-3.1.046,7.93,7.93,0,0,1,.017,15.509c.073.015.145.032.219.046a7.931,7.931,0,1,0,2.863-15.6Z" transform="translate(-113.467 -53.314)"/><g transform="translate(11.478 60.45)"><path class="a" d="M271.689,160.33a.83.83,0,0,0-1.173,0l-.246.247-.247-.247a.829.829,0,0,0-1.173,1.173l.247.247-.247.247a.83.83,0,0,0,1.173,1.173l.246-.247.247.247A.83.83,0,1,0,271.689,162l-.247-.247.247-.247A.83.83,0,0,0,271.689,160.33Z" transform="translate(-250.377 -160.087)"/><path class="a" d="M321.964,160.33a.83.83,0,0,0-1.173,0l-.247.247-.246-.247a.83.83,0,0,0-1.173,1.173l.247.247-.247.247a.83.83,0,0,0,1.173,1.173l.246-.247.247.247A.83.83,0,0,0,321.964,162l-.247-.247.247-.247A.83.83,0,0,0,321.964,160.33Z" transform="translate(-295.091 -160.087)"/><path class="a" d="M371.992,161.75l.247-.247a.829.829,0,1,0-1.173-1.173l-.247.247-.247-.247A.829.829,0,0,0,369.4,161.5l.247.247L369.4,162a.83.83,0,0,0,1.173,1.173l.247-.247.246.247A.83.83,0,1,0,372.239,162Z" transform="translate(-339.806 -160.087)"/><path class="a" d="M106.861,160.33a.83.83,0,0,0-1.173,0l-.247.247-.247-.247a.829.829,0,0,0-1.173,1.173l.247.247-.247.247a.83.83,0,0,0,1.173,1.173l.247-.247.247.247A.83.83,0,1,0,106.861,162l-.247-.247.247-.247A.83.83,0,0,0,106.861,160.33Z" transform="translate(-103.778 -160.087)"/><path class="a" d="M156.889,161.75l.247-.247a.829.829,0,0,0-1.173-1.173l-.247.247-.247-.247A.829.829,0,0,0,154.3,161.5l.247.247L154.3,162a.83.83,0,0,0,1.173,1.173l.247-.247.247.247A.83.83,0,1,0,157.136,162Z" transform="translate(-148.493 -160.087)"/></g></g></svg>