<svg xmlns="http://www.w3.org/2000/svg" width="151.924" height="27.244" viewBox="0 0 151.924 27.244"><defs><style>.a{opacity:0.5;}</style></defs><g class="a"><g transform="translate(38.344 5.861)"><path d="M-9.1,210.686a1.817,1.817,0,0,1,1.837-1.811H2.049a1.635,1.635,0,1,1,0,3.271H-5.427v3.5H1a1.635,1.635,0,1,1,0,3.271h-6.43v4.7a1.817,1.817,0,0,1-1.837,1.811A1.817,1.817,0,0,1-9.1,223.617Z" transform="translate(9.102 -208.624)"/><path d="M38.567,210.263a1.838,1.838,0,0,1,3.675,0v11.471H49A1.635,1.635,0,1,1,49,225H40.378a1.817,1.817,0,0,1-1.837-1.811v-12.93h.026Z" transform="translate(-24.404 -208.326)"/><path d="M82,222.392l5.818-12.93a2.294,2.294,0,0,1,2.144-1.434h.2a2.223,2.223,0,0,1,2.118,1.434l5.818,12.93a1.612,1.612,0,0,1,.179.73,1.73,1.73,0,0,1-1.735,1.736,1.871,1.871,0,0,1-1.761-1.233l-1.123-2.591H86.34l-1.174,2.692a1.79,1.79,0,0,1-1.684,1.132,1.676,1.676,0,0,1-1.684-1.685,1.778,1.778,0,0,1,.2-.78Zm10.309-4.553-2.3-5.408-2.3,5.408Z" transform="translate(-54.826 -208.028)"/><path d="M136.711,212.281h-3.522a1.66,1.66,0,1,1,0-3.32h10.717a1.66,1.66,0,1,1,0,3.32h-3.522V223.7a1.838,1.838,0,0,1-3.675,0V212.281Z" transform="translate(-89.783 -208.684)"/></g><g transform="translate(95.504 5.836)"><path d="M-23.031,210.263a1.817,1.817,0,0,1,1.837-1.811,1.817,1.817,0,0,1,1.837,1.811v13.081a1.817,1.817,0,0,1-1.837,1.811,1.817,1.817,0,0,1-1.837-1.811Z" transform="translate(23.031 -208.301)"/><path d="M-3.424,216.5v-.05a8.408,8.408,0,0,1,8.676-8.5,8.9,8.9,0,0,1,5.563,1.66,1.773,1.773,0,0,1-1.1,3.195,1.821,1.821,0,0,1-1.1-.352,5.5,5.5,0,0,0-3.394-1.182A4.882,4.882,0,0,0,.4,216.37v.05a4.894,4.894,0,0,0,4.823,5.157,5.467,5.467,0,0,0,3.624-1.283,1.763,1.763,0,0,1,1.1-.4,1.71,1.71,0,0,1,1.71,1.66,1.684,1.684,0,0,1-.612,1.283,8.493,8.493,0,0,1-5.92,2.063,8.3,8.3,0,0,1-8.548-8.4Z" transform="translate(9.242 -207.943)"/><path d="M50.325,216.5v-.05a8.553,8.553,0,0,1,8.88-8.5,8.484,8.484,0,0,1,8.829,8.453v.05a8.553,8.553,0,0,1-8.88,8.5,8.5,8.5,0,0,1-8.829-8.453Zm13.882,0v-.05a5.018,5.018,0,0,0-5.053-5.157,4.934,4.934,0,0,0-5,5.107v.05a5.018,5.018,0,0,0,5.053,5.157A4.934,4.934,0,0,0,64.207,216.5Z" transform="translate(-28.558 -207.943)"/><path d="M117.146,210.313a1.817,1.817,0,0,1,1.837-1.811h.383a2.3,2.3,0,0,1,1.914,1.057l7.068,9.157v-8.477a1.812,1.812,0,0,1,3.624,0v13.056a1.817,1.817,0,0,1-1.837,1.811h-.128a2.3,2.3,0,0,1-1.914-1.057l-7.324-9.484v8.8a1.812,1.812,0,0,1-3.624,0Z" transform="translate(-75.552 -208.301)"/></g><path d="M13.107,225.086H16.5l3.011-4.956H10.07l-3.113-5.081H22.625l3.011-4.956H2.517a2.526,2.526,0,0,0-2.195,1.258,2.482,2.482,0,0,0,.026,2.49L14,236.13a2.506,2.506,0,0,0,4.287,0l.791-1.283Z" transform="translate(0 -210.093)"/><g transform="translate(17.547 0)"><path d="M21.821,215.049H27.69l.74-1.207a2.422,2.422,0,0,0,.026-2.49,2.5,2.5,0,0,0-2.195-1.258H24.832Z" transform="translate(-14.012 -210.093)"/><path d="M1.885,234.763-4.5,245.2l2.909,4.78,9.314-15.219Z" transform="translate(4.495 -227.443)"/></g></g></svg>