<svg xmlns="http://www.w3.org/2000/svg" width="119.269" height="32.139" viewBox="0 0 119.269 32.139"><defs><style>.a{opacity:0.5;}</style></defs><g class="a"><path d="M5.164,220.963A13.425,13.425,0,0,0,3.1,223.71l-.873-.451a1.144,1.144,0,0,0-1.235-.88,1.135,1.135,0,0,0,.277,2.254.9.9,0,0,0,.341-.107l.852.451a13.611,13.611,0,0,0-1,3.284l1.406.258a12.537,12.537,0,0,1,3.343-6.546Z" transform="translate(0 -213.056)"/><path d="M45.757,190.59c-.319,0-.639.021-.958.021l-.128-1.18a1.356,1.356,0,0,0,.49-1.223,1.341,1.341,0,1,0-1.9,1.374l.128,1.18a13.685,13.685,0,0,0-3.855,1.223l.618,1.288a12.892,12.892,0,0,1,5.6-1.266,13.341,13.341,0,0,1,2.769.3l.3-1.4a14.731,14.731,0,0,0-3.067-.322Z" transform="translate(-30.329 -187.018)"/><path d="M101.3,214.417a1.135,1.135,0,0,0-.277-2.254,1.152,1.152,0,0,0-1,1.137l-.788.687a14.3,14.3,0,0,0-2.641-2.146l-.745,1.2a12.736,12.736,0,0,1,4.792,5.516l1.3-.58a13.994,13.994,0,0,0-1.768-2.919l.745-.665a.78.78,0,0,0,.383.021Z" transform="translate(-73.524 -206.059)"/><path d="M31.551,273.526q-1.086.064-2.172.064a28.609,28.609,0,0,1-4.643-.343,15.766,15.766,0,0,1-2.385-.558,11.556,11.556,0,0,0,21.211-2.618,19.126,19.126,0,0,1-4.6,2.125,29,29,0,0,1-7.411,1.331Z" transform="translate(-17.144 -250.723)"/><path d="M28.786,214.6a11.305,11.305,0,0,0-11.372,11.2,11.184,11.184,0,0,0,.256,2.382c1.257.9,5.068,1.674,10.009,1.374,5.388-.322,9.9-1.8,12.479-4.078a9.463,9.463,0,0,0-.085-1.095A11.331,11.331,0,0,0,28.786,214.6ZM24.74,226.882a3.477,3.477,0,1,1,3.45-3.477A3.463,3.463,0,0,1,24.74,226.882Zm8.859-1.717a2.554,2.554,0,1,1,2.534-2.554A2.523,2.523,0,0,1,33.6,225.165Z" transform="translate(-13.358 -208.179)"/><path d="M160.808,217.136a5.347,5.347,0,0,0-2.577-.451,1.623,1.623,0,0,0-1.576,1.889V220.2h4.174v3.241h-4.174v10.281h-3.62V223.445h-2.513v-3.219h2.513v-1.674c0-3.176,1.682-5.237,4.813-5.237a7.526,7.526,0,0,1,2.981.58Z" transform="translate(-115.458 -207.189)"/><path d="M208.053,244.978a5.193,5.193,0,0,0-.98-.086c-1.682,0-2.832,1.03-2.832,3.048V255.3h-3.62V241.78h3.493v1.481a4.233,4.233,0,0,1,3.769-1.846,3.279,3.279,0,0,1,2.044.644Z" transform="translate(-153.887 -228.743)"/><path d="M250.225,248.592a10.356,10.356,0,0,1-.064,1.223h-9.519a3.25,3.25,0,0,0,3.45,2.812,5.376,5.376,0,0,0,3.386-1.288l2.108,2.339a8.1,8.1,0,0,1-5.707,2.06c-4.11,0-6.964-2.812-6.964-7.083,0-4.25,2.769-7.147,6.793-7.147,3.855-.022,6.5,2.854,6.517,7.082Zm-9.562-1.266H246.6c-.341-1.738-1.363-2.7-2.918-2.7a2.921,2.921,0,0,0-3.024,2.7Z" transform="translate(-181.726 -228.816)"/><path d="M311.66,248.592a10.352,10.352,0,0,1-.064,1.223h-9.519a3.25,3.25,0,0,0,3.45,2.812,5.376,5.376,0,0,0,3.386-1.288l2.108,2.339a8.1,8.1,0,0,1-5.707,2.06c-4.11,0-6.964-2.812-6.964-7.083,0-4.25,2.769-7.147,6.793-7.147,3.855-.022,6.5,2.854,6.517,7.082Zm-9.562-1.266h5.942c-.341-1.738-1.363-2.7-2.918-2.7a2.934,2.934,0,0,0-3.024,2.7Z" transform="translate(-228.85 -228.816)"/><path d="M376.287,248.59c0,4.056-2.79,7.126-6.5,7.126a4.852,4.852,0,0,1-3.94-1.76v7h-3.6v-19.1h3.535v1.5a4.855,4.855,0,0,1,4-1.846c3.706-.021,6.5,3.026,6.5,7.083Zm-10.627,0a3.471,3.471,0,1,0,3.45-3.734A3.478,3.478,0,0,0,365.66,248.59Z" transform="translate(-277.867 -228.814)"/><path d="M432.24,216.207a2.311,2.311,0,1,1-2.321-2.339A2.309,2.309,0,0,1,432.24,216.207Zm-.49,17.943h-3.62V220.629h3.62Z" transform="translate(-328.006 -207.613)"/><path d="M459.165,226.094l5.047-4.808h4.43l-6.517,6.353,6.538,7.147h-4.451l-5.09-5.473v5.473H455.5V214.7h3.62v11.4Z" transform="translate(-349.394 -208.25)"/></g></svg>