<svg xmlns="http://www.w3.org/2000/svg" width="66.532" height="66.533" viewBox="0 0 66.532 66.533">
  <g id="Group_64668" data-name="Group 64668" transform="translate(-10690 -5243.408)">
    <path id="Path" d="M0,0H66.533V66.533H0Z" transform="translate(10690 5243.408)" fill="none"/>
    <path id="Path-2" data-name="Path" d="M0,18.989A38.181,38.181,0,0,0,6.556,1.859,1.6,1.6,0,0,1,7.673.548C13.7-1.316,17.12,1.646,17.064,8.4c-.011,1.311-.071,2.476-.2,4.259-.288,3.981-.265,5.067.181,5.8.428.7,1.819.943,5.109.318,1.038-.2,2.079-.42,3.233-.689.509-.118,4.176-1.013,5.114-1.216a15.606,15.606,0,0,1,4.2-.48c3.056.187,4.678,2.155,4.958,5.925.494,6.639-1.031,19.976-2.553,24.888-1.555,5.02-4.266,6.914-10.774,7.029q-6.276.11-19.336,0A15.485,15.485,0,0,1,.959,52.944,7.9,7.9,0,0,0,1.744,49.5V23.952A7.907,7.907,0,0,0,0,18.989Z" transform="translate(10709.116 5250.537)" fill="#00b8d9"/>
    <path id="Path-3" data-name="Path" d="M4.832,0A4.811,4.811,0,0,0,0,4.79V30.339a4.811,4.811,0,0,0,4.832,4.79H8.054a4.811,4.811,0,0,0,4.832-4.79V4.79A4.811,4.811,0,0,0,8.054,0Z" transform="translate(10694.752 5269.698)" fill="#00b8d9" opacity="0.3"/>
  </g>
</svg>
