<svg xmlns="http://www.w3.org/2000/svg" width="21.419" height="21.42" viewBox="0 0 21.419 21.42"><defs><style>.a{fill:rgba(255,255,255,0.77);}</style></defs><path class="a" d="M7.141,10.71a3.57,3.57,0,1,1,3.569,3.57,3.57,3.57,0,0,1-3.569-3.57m-1.93,0a5.5,5.5,0,1,0,5.5-5.5,5.5,5.5,0,0,0-5.5,5.5m9.931-5.718a1.285,1.285,0,1,0,1.286-1.285h0a1.286,1.286,0,0,0-1.285,1.285M6.383,19.428a5.919,5.919,0,0,1-1.989-.368,3.329,3.329,0,0,1-1.232-.8,3.3,3.3,0,0,1-.8-1.231,5.914,5.914,0,0,1-.368-1.989c-.052-1.129-.062-1.468-.062-4.328s.011-3.2.062-4.328a5.958,5.958,0,0,1,.368-1.989,3.329,3.329,0,0,1,.8-1.232,3.3,3.3,0,0,1,1.232-.8,5.914,5.914,0,0,1,1.989-.368c1.129-.052,1.468-.062,4.327-.062s3.2.011,4.328.062a5.958,5.958,0,0,1,1.989.368,3.318,3.318,0,0,1,1.232.8,3.318,3.318,0,0,1,.8,1.232,5.914,5.914,0,0,1,.368,1.989c.052,1.13.062,1.468.062,4.328s-.01,3.2-.062,4.328a5.942,5.942,0,0,1-.368,1.989,3.546,3.546,0,0,1-2.033,2.032,5.914,5.914,0,0,1-1.989.368c-1.129.052-1.468.062-4.328.062s-3.2-.01-4.327-.062M6.294.065a7.853,7.853,0,0,0-2.6.5A5.253,5.253,0,0,0,1.8,1.8a5.233,5.233,0,0,0-1.235,1.9,7.856,7.856,0,0,0-.5,2.6C.012,7.436,0,7.8,0,10.71s.012,3.274.065,4.416a7.855,7.855,0,0,0,.5,2.6,5.235,5.235,0,0,0,1.235,1.9,5.266,5.266,0,0,0,1.9,1.235,7.86,7.86,0,0,0,2.6.5c1.143.052,1.507.065,4.416.065s3.274-.012,4.416-.065a7.855,7.855,0,0,0,2.6-.5,5.476,5.476,0,0,0,3.133-3.133,7.834,7.834,0,0,0,.5-2.6c.052-1.143.064-1.507.064-4.416s-.012-3.274-.064-4.416a7.853,7.853,0,0,0-.5-2.6,5.267,5.267,0,0,0-1.235-1.9,5.241,5.241,0,0,0-1.9-1.235,7.843,7.843,0,0,0-2.6-.5C13.984.013,13.619,0,10.711,0S7.437.012,6.294.065"/><path class="a" d="M7.141,10.71a3.57,3.57,0,1,1,3.569,3.57,3.57,3.57,0,0,1-3.569-3.57m-1.93,0a5.5,5.5,0,1,0,5.5-5.5,5.5,5.5,0,0,0-5.5,5.5m9.931-5.718a1.285,1.285,0,1,0,1.286-1.285h0a1.286,1.286,0,0,0-1.285,1.285M6.383,19.428a5.919,5.919,0,0,1-1.989-.368,3.329,3.329,0,0,1-1.232-.8,3.3,3.3,0,0,1-.8-1.231,5.914,5.914,0,0,1-.368-1.989c-.052-1.129-.062-1.468-.062-4.328s.011-3.2.062-4.328a5.958,5.958,0,0,1,.368-1.989,3.329,3.329,0,0,1,.8-1.232,3.3,3.3,0,0,1,1.232-.8,5.914,5.914,0,0,1,1.989-.368c1.129-.052,1.468-.062,4.327-.062s3.2.011,4.328.062a5.958,5.958,0,0,1,1.989.368,3.318,3.318,0,0,1,1.232.8,3.318,3.318,0,0,1,.8,1.232,5.914,5.914,0,0,1,.368,1.989c.052,1.13.062,1.468.062,4.328s-.01,3.2-.062,4.328a5.942,5.942,0,0,1-.368,1.989,3.546,3.546,0,0,1-2.033,2.032,5.914,5.914,0,0,1-1.989.368c-1.129.052-1.468.062-4.328.062s-3.2-.01-4.327-.062M6.294.065a7.853,7.853,0,0,0-2.6.5A5.253,5.253,0,0,0,1.8,1.8a5.233,5.233,0,0,0-1.235,1.9,7.856,7.856,0,0,0-.5,2.6C.012,7.436,0,7.8,0,10.71s.012,3.274.065,4.416a7.855,7.855,0,0,0,.5,2.6,5.235,5.235,0,0,0,1.235,1.9,5.266,5.266,0,0,0,1.9,1.235,7.86,7.86,0,0,0,2.6.5c1.143.052,1.507.065,4.416.065s3.274-.012,4.416-.065a7.855,7.855,0,0,0,2.6-.5,5.476,5.476,0,0,0,3.133-3.133,7.834,7.834,0,0,0,.5-2.6c.052-1.143.064-1.507.064-4.416s-.012-3.274-.064-4.416a7.853,7.853,0,0,0-.5-2.6,5.267,5.267,0,0,0-1.235-1.9,5.241,5.241,0,0,0-1.9-1.235,7.843,7.843,0,0,0-2.6-.5C13.984.013,13.619,0,10.711,0S7.437.012,6.294.065"/></svg>