<svg id="Icon_Best_Offers" data-name="Icon_Best Offers" xmlns="http://www.w3.org/2000/svg" width="67.001" height="67.001" viewBox="0 0 67.001 67.001">
  <path id="path" d="M0,0H67V67H0Z" fill="none"/>
  <path id="path-2" data-name="path" d="M21.44,42.88A21.44,21.44,0,0,1,6.28,6.28,21.44,21.44,0,0,1,36.6,36.6,21.3,21.3,0,0,1,21.44,42.88ZM17.434,29.46a1.34,1.34,0,0,0,0,2.68H25.47a1.34,1.34,0,0,0,0-2.68H22.78V12.395a1.333,1.333,0,0,0-1.349-1.342,1.307,1.307,0,0,0-.906.364l-3.351,3.139a1.343,1.343,0,0,0-.062,1.893,1.34,1.34,0,0,0,1.895.062L20.1,15.487V29.46Z" transform="translate(12.06 6.7)" fill="#8969c8"/>
  <path id="path-3" data-name="path" d="M32.455,18.336,27.324,9.449A24.1,24.1,0,0,0,43.531,0L48.7,8.956a1.34,1.34,0,0,1-.886,1.981l-7.851,1.645-5.35,5.977a1.339,1.339,0,0,1-2.159-.223Zm-18.187.182-5.35-5.977L1.066,10.9A1.339,1.339,0,0,1,.181,8.915L5.16.289a24.1,24.1,0,0,0,16.349,9.2l-5.082,8.8a1.339,1.339,0,0,1-2.159.223Z" transform="translate(9.265 42.616)" fill="#8969c8" opacity="0.3"/>
</svg>
