<svg xmlns="http://www.w3.org/2000/svg" width="127.591" height="31.877" viewBox="0 0 127.591 31.877"><defs><style>.a{opacity:0.5;}</style></defs><g class="a"><path d="M186.439,235.444c0,4.413-3.1,7.751-7.194,7.751a5.71,5.71,0,0,1-4.4-1.871v7.618h-4v-20.76H174.7v1.649a5.421,5.421,0,0,1,4.453-2C183.381,227.647,186.439,230.989,186.439,235.444Zm-11.689,0a3.828,3.828,0,1,0,3.822-4.054,3.787,3.787,0,0,0-3.822,4.054Z" transform="translate(-128.265 -218.904)"/><path d="M245.735,201.92a2.517,2.517,0,0,1-2.652,2.54,2.622,2.622,0,0,1-2.428-2.716,2.4,2.4,0,0,1,2.563-2.317,2.47,2.47,0,0,1,2.517,2.493Zm-.585,19.513h-4v-14.7h4Z" transform="translate(-180.683 -197.587)"/><path d="M276.142,212.341l4.271-5.212h4.9l-5.845,6.95,5.935,7.751h-4.9l-4.271-5.927v5.927h-4V199.956h4Z" transform="translate(-204.391 -197.984)"/><path d="M333.089,219.241H327.74v5.346c0,1.827.944,2.54,2.248,2.54a5.79,5.79,0,0,0,2.79-.936l1.484,3.074a8.121,8.121,0,0,1-4.9,1.559c-3.686,0-5.53-2.094-5.53-5.881v-5.658H319.7l2.878-3.519h1.253V211.4h4v4.364h5.35l-.09,3.475h0Z" transform="translate(-240.027 -206.577)"/><path d="M395.081,242.1h-3.866v-1.649a5.421,5.421,0,0,1-4.453,2c-4.091,0-7.194-3.341-7.194-7.751s3.1-7.751,7.194-7.751a5.557,5.557,0,0,1,4.453,2V227.3h3.866Zm-11.465-7.306a3.828,3.828,0,1,0,3.821-4.054A3.785,3.785,0,0,0,383.617,234.79Z" transform="translate(-284.98 -218.25)"/><path d="M465.26,214.794c0,4.413-3.1,7.751-7.194,7.751a5.431,5.431,0,0,1-4.453-2v1.649h-3.866V200.316h4V209a5.433,5.433,0,0,1,4.316-1.96C462.158,207,465.26,210.339,465.26,214.794Zm-11.734,0a3.828,3.828,0,1,0,3.822-4.054A3.787,3.787,0,0,0,453.526,214.794Z" transform="translate(-337.67 -198.254)"/><path d="M42.544,216.248a10.9,10.9,0,0,0-.714-3.861,11.127,11.127,0,0,0-10.36-7.179,11.479,11.479,0,0,0-2.431.27,11.035,11.035,0,0,0-8.786,10.77,18.313,18.313,0,0,0,.383,4.126,1.875,1.875,0,0,0,.974,1.15c.3.186.612.368.93.537a18.706,18.706,0,0,0,8.861,2.214c.049,0,.094,0,.142,0a18.861,18.861,0,0,0,9.647-2.747,2.346,2.346,0,0,0,1.122-1.455.074.074,0,0,1,0-.017,2.213,2.213,0,0,0,.074-.246,7.741,7.741,0,0,0,.15-1.57C42.561,217.526,42.544,216.807,42.544,216.248Zm-16.751-7.04a2.817,2.817,0,0,1,3.872-.326,2.655,2.655,0,0,1-.333,3.777,2.817,2.817,0,0,1-3.872.326A2.655,2.655,0,0,1,25.793,209.207Zm15.178,9.419a1.838,1.838,0,0,1-.836,1.384,18.679,18.679,0,0,1-8.538,2.305,17.215,17.215,0,0,1-8.425-2.244,1.8,1.8,0,0,1-.9-1.355c-.049-.388-.049-1.209-.049-1.612a.672.672,0,0,1,.165-.464,20.537,20.537,0,0,1,3.455-1.5,1.118,1.118,0,0,1,1.087.1l2.905,2.01a1.067,1.067,0,0,0,1.566-.166l4.563-4.417a1.29,1.29,0,0,1,1.629-.327l2.34,1.581a1.456,1.456,0,0,1,.8.928,6.932,6.932,0,0,1,.234,1.669A12.566,12.566,0,0,1,40.971,218.626Z" transform="translate(-15.206 -201.927)"/><path d="M31.039,200.7a2.117,2.117,0,0,0-.436-.413,2.884,2.884,0,0,0-1.713-.5,14.158,14.158,0,0,0-12.515-7.742h-.16A14.16,14.16,0,0,0,3.7,199.786a2.884,2.884,0,0,0-1.713.5,2.109,2.109,0,0,0-.437.412A8.637,8.637,0,0,0,0,206.04a8.016,8.016,0,0,0,.918,4.431l.039.054a2.762,2.762,0,0,0,1.725,1.018,13.26,13.26,0,0,0,1.185,2.982.006.006,0,0,0-.005,0,17.465,17.465,0,0,0-1.434,1.654.748.748,0,0,0,0,.77c2.818,4.192,8.215,6.913,13.787,6.965h.161c5.57-.052,10.967-2.773,13.786-6.964a.747.747,0,0,0,0-.77,17.467,17.467,0,0,0-1.434-1.654.006.006,0,0,1-.005,0,13.249,13.249,0,0,0,1.185-2.982,2.762,2.762,0,0,0,1.725-1.018l.039-.054a8.016,8.016,0,0,0,.918-4.431A8.641,8.641,0,0,0,31.039,200.7Zm-.7,8.927c-.019.022-.043.04-.063.061a8.756,8.756,0,0,0,.043-1.126c0-.114,0-.228,0-.343a.315.315,0,0,0-.3-.317h-.51a.419.419,0,0,0-.235.059.3.3,0,0,0-.1.236,12.655,12.655,0,0,1-4.144,8.632.539.539,0,0,0-.066.757l.092.115a.531.531,0,0,0,.413.191.673.673,0,0,0,.361-.111,7.725,7.725,0,0,0,2.172-2.1c.06.067.339.405.339.405a.34.34,0,0,1,.032.4A15.572,15.572,0,0,1,16.3,222.358a15.571,15.571,0,0,1-12.077-5.882.338.338,0,0,1,.032-.4s.279-.339.339-.405a7.7,7.7,0,0,0,2.172,2.1.581.581,0,0,0,.774-.08l.092-.115a.539.539,0,0,0-.066-.757A12.661,12.661,0,0,1,3.419,208.2a.3.3,0,0,0-.1-.236.418.418,0,0,0-.235-.059H2.568a.314.314,0,0,0-.3.317c0,.115,0,.229,0,.343a8.667,8.667,0,0,0,.043,1.126c-.02-.021-.045-.038-.063-.061a6.886,6.886,0,0,1-.659-3.588A7.18,7.18,0,0,1,2.8,201.648a.6.6,0,0,1,.115-.114c.019-.013.042-.021.062-.033a10.1,10.1,0,0,0-.395,1.994c-.012.126-.049.507.294.575l.229.077a.9.9,0,0,0,.176.019.381.381,0,0,0,.412-.3,13.063,13.063,0,0,1,12.6-10.255,13.065,13.065,0,0,1,12.6,10.255.382.382,0,0,0,.412.3.9.9,0,0,0,.176-.019l.229-.077c.343-.068.306-.449.294-.575a10.109,10.109,0,0,0-.395-1.994c.02.012.043.019.062.033a.6.6,0,0,1,.115.114A7.183,7.183,0,0,1,31,206.037a6.88,6.88,0,0,1-.658,3.59h0Z" transform="translate(0 -192.042)"/></g></svg>