<svg xmlns="http://www.w3.org/2000/svg" width="24.676" height="20.423" viewBox="0 0 24.676 20.423"><defs><style>.a{fill:none;stroke:rgba(255,255,255,0.82);stroke-linejoin:round;stroke-width:2px;}</style></defs><g transform="translate(1 1)"><path class="a" d="M15.151,0V0h1.063L16.6.078a4.156,4.156,0,0,1,.705.2,5.018,5.018,0,0,1,.613.286A5.833,5.833,0,0,1,18.46.9a3.309,3.309,0,0,1,.429.356.6.6,0,0,0,.587.1,7.849,7.849,0,0,0,.859-.256q.46-.164.91-.368t.548-.26l.1-.061L21.9.4l.02-.01.02-.01.02-.01.02-.01,0-.006.006,0,.006,0,0-.006.02-.006.02,0,0,.031-.006.031-.01.031-.01.031L22,.47l-.01.02-.01.031A.71.71,0,0,0,21.96.6a3.429,3.429,0,0,1-.194.409,5.114,5.114,0,0,1-.46.726,3.569,3.569,0,0,1-.495.556q-.221.19-.292.266a.878.878,0,0,1-.174.143l-.1.067-.02.01-.02.01,0,.006-.006,0-.006,0,0,.006-.02.01-.02.01,0,.006-.006,0-.006,0,0,.006,0,.006-.006,0-.006,0,0,.006h.1l.573-.123a10.245,10.245,0,0,0,1.094-.3l.552-.184.061-.02.031-.01.02-.01.02-.01.02-.01.02-.01.041-.006.041,0v.041l-.01,0-.01.006,0,.006-.006,0-.006,0,0,.006,0,.006-.006,0-.006,0,0,.006,0,.006-.006,0-.01.02-.01.02-.006,0-.26.348a2.874,2.874,0,0,1-.276.348q-.02.006-.057.061a5.861,5.861,0,0,1-.433.456,10.291,10.291,0,0,1-.781.71.968.968,0,0,0-.388.769q-.006.454-.047,1.026t-.153,1.237a14.749,14.749,0,0,1-.348,1.5,13.664,13.664,0,0,1-.573,1.636,12.745,12.745,0,0,1-.705,1.431q-.368.634-.675,1.073t-.624.828q-.317.389-.8.875t-.532.532q-.047.045-.4.335t-.757.585a8.751,8.751,0,0,1-.74.485q-.337.194-.814.444a9.682,9.682,0,0,1-1.026.466q-.552.215-1.165.4a10.645,10.645,0,0,1-1.186.286q-.573.1-1.3.174l-.726.072v.01H6.482v-.01l-.174-.01q-.174-.01-.286-.02t-.849-.112q-.736-.1-1.155-.2t-1.247-.388A12.136,12.136,0,0,1,1.354,17.1q-.587-.29-.736-.368t-.331-.188L.1,16.429l0-.006-.006,0-.006,0,0-.006-.02-.01-.02-.01,0-.006-.006,0-.006,0,0-.006,0-.006-.006,0H0v-.041l.02,0,.02.006.092.01q.092.01.5.031t.869,0a9.145,9.145,0,0,0,.941-.092,10.6,10.6,0,0,0,1.135-.245,8.385,8.385,0,0,0,1.2-.413q.546-.241.777-.36a7.566,7.566,0,0,0,.7-.433l.47-.317,0-.006.006,0,.006,0,0-.006,0-.006.006,0,.006,0,0-.006.02-.006.02,0,0-.02.006-.02.006,0,0-.006-.164-.01-.317-.02a3.074,3.074,0,0,1-.481-.092,4.612,4.612,0,0,1-.705-.245,5.439,5.439,0,0,1-.736-.388,3.623,3.623,0,0,1-.517-.374q-.157-.147-.409-.417a4.137,4.137,0,0,1-.433-.558,5.015,5.015,0,0,1-.352-.66l-.17-.372-.01-.031-.01-.031-.006-.02,0-.02.031,0,.031.006.225.031a5,5,0,0,0,.705.02,5.462,5.462,0,0,0,.665-.041q.184-.031.225-.041l.041-.01.051-.01.051-.01,0-.006.006,0,.006,0,0-.006-.041-.01-.041-.01-.041-.01-.041-.01-.041-.01L4.212,11q-.1-.031-.552-.225a4.222,4.222,0,0,1-.716-.378,4.942,4.942,0,0,1-.507-.4,5.787,5.787,0,0,1-.525-.568A4.09,4.09,0,0,1,1.4,8.619a4.912,4.912,0,0,1-.337-.879,4.747,4.747,0,0,1-.147-.849L.879,6.461l.02,0,.02.006.02.01.02.01.02.01.02.01.317.143a4,4,0,0,0,.787.245q.47.1.562.112l.092.01h.184l0-.006-.006,0-.006,0,0-.006L2.92,7l-.006,0-.006,0,0-.006-.02-.01-.02-.01,0-.006-.006,0-.006,0,0-.006-.02-.01-.02-.01,0-.006-.176-.131a2.681,2.681,0,0,1-.352-.333q-.184-.2-.368-.429a3.316,3.316,0,0,1-.327-.481,5.825,5.825,0,0,1-.3-.65A4.616,4.616,0,0,1,1.033,4.1a4.5,4.5,0,0,1-.092-.787,4.957,4.957,0,0,1,.02-.665,4.343,4.343,0,0,1,.123-.624,4.859,4.859,0,0,1,.266-.736L1.523.9l.01-.031.01-.031.006,0,0-.006,0-.006.006,0,.006,0,0,.006,0,.006.006,0,.006,0,0,.006,0,.006.006,0,.01.02.01.02.006,0,0,.006.276.307q.276.307.654.685a3.845,3.845,0,0,0,.419.393.3.3,0,0,1,.1.094A4.174,4.174,0,0,0,3.5,2.75q.348.286.91.665t1.247.746a12.17,12.17,0,0,0,1.472.665q.787.3,1.1.388t1.084.235q.767.143,1.155.184T11,5.68l.143,0,0-.031-.006-.031-.041-.256a4.805,4.805,0,0,1-.041-.716,4.692,4.692,0,0,1,.072-.849,5.027,5.027,0,0,1,.215-.787,4.205,4.205,0,0,1,.28-.64,6.3,6.3,0,0,1,.364-.546,4.409,4.409,0,0,1,.583-.634,4.3,4.3,0,0,1,.818-.583,5.317,5.317,0,0,1,.849-.388,3.954,3.954,0,0,1,.654-.174A2.274,2.274,0,0,0,15.151,0Z" transform="translate(0 0)"/></g></svg>