<svg xmlns="http://www.w3.org/2000/svg" width="52.001" height="52" viewBox="0 0 52.001 52"><defs><style>.a{fill:#e1effb;}.b{fill:#ccdfed;}.c{fill:#26dd9f;}.d{fill:#23b77e;}.e{fill:#21d8de;}.f{fill:#1ebbcc;}</style></defs><g transform="translate(0 0)"><circle class="a" cx="16.834" cy="16.834" r="16.834" transform="translate(9.166 9.155)"/><path class="b" d="M232.324,90.142a16.945,16.945,0,0,0-2.676.213,16.836,16.836,0,0,1,0,33.243,16.835,16.835,0,1,0,2.676-33.456Z" transform="translate(-206.324 -80.987)"/><g transform="translate(10.084 9.156)"><path class="c" d="M117.477,112.1c-2-.047-4.681-5.82-8.576-3.843-1.247.633-5.545-1.532-5.363-2.479.441-2.3-1.614-2.591-.917-4.043.379-.789.87-1.678,1.9-1.15s.54,2.113,1.342,2.082.885-1.453,1.193-2.548,1.59-.748,1.917-1.353a5.561,5.561,0,0,1,2.168-2.447c1.282-.723.326-1.282.723-1.678s2.211-.123,2.634-.746a4.068,4.068,0,0,0,.658-3.752,16.833,16.833,0,0,0-14.923,9.134v0a8.678,8.678,0,0,0-.753,5.629c.84,3.258,4.452,5.011,6.079,5.648a.85.85,0,0,1,.5,1.047c-.382,1.211-.752,3.549,1.537,4.694,3.17,1.585,3.17,2.564,2.844,5.128a12.731,12.731,0,0,0-.115,1.669q.206.062.414.119l.015,0q.2.055.4.105l.025.006q.2.049.4.093l.031.007q.2.043.4.081l.035.007q.2.038.4.071l.035.006q.2.033.407.061l.03,0q.209.028.42.052l.019,0q.22.024.441.042h0c1.295-.937,3.242-2.033,3.587-3.308.466-1.725,5.011-3.5,4.662-5.92C121.932,113.743,119.482,112.151,117.477,112.1Z" transform="translate(-99.285 -90.148)"/><path class="c" d="M316.925,113.614a16.842,16.842,0,0,0-11.85-16.084c1.112,1.384,2.687,3.473,2.565,4.053a3.108,3.108,0,0,0,.559,1.965,8.449,8.449,0,0,0-1.4,4.188c.093,1.958,2.169,5.358,3.078,5.505s2.789-1.913,3.682-1.076c1.935,1.812.083,9.319-.893,12.637A16.769,16.769,0,0,0,316.925,113.614Z" transform="translate(-284.174 -96.78)"/></g><path class="d" d="M316.925,113.611q0-.2-.005-.4c0-.042,0-.084,0-.126,0-.091-.006-.183-.01-.274q0-.072-.007-.144-.007-.132-.017-.264c0-.045-.006-.09-.01-.135q-.012-.156-.028-.31c0-.027,0-.055-.008-.082q-.02-.194-.044-.387c0-.036-.01-.071-.014-.107q-.019-.141-.039-.281c-.007-.046-.014-.091-.021-.137q-.02-.127-.042-.254c-.008-.046-.016-.091-.024-.137q-.025-.136-.052-.271c-.007-.036-.014-.073-.022-.109q-.039-.188-.081-.374l-.017-.071q-.036-.152-.074-.3c-.011-.043-.022-.085-.034-.128q-.032-.123-.066-.245l-.039-.136q-.035-.123-.073-.246c-.013-.041-.025-.082-.037-.123q-.051-.163-.105-.325l-.012-.037q-.06-.178-.125-.354c-.014-.039-.029-.078-.044-.117q-.044-.12-.091-.238l-.053-.133q-.045-.113-.092-.226l-.053-.127c-.036-.085-.074-.17-.111-.255l-.04-.09q-.076-.169-.156-.335l-.049-.1c-.039-.079-.078-.158-.118-.237l-.065-.127q-.055-.105-.11-.209l-.069-.128q-.06-.109-.122-.218l-.062-.11q-.091-.158-.186-.314l-.045-.072q-.075-.122-.152-.243l-.077-.12q-.063-.1-.128-.194l-.085-.125-.132-.19-.082-.117q-.083-.117-.169-.231l-.05-.068q-.108-.144-.218-.285l-.087-.11-.145-.18-.1-.12-.142-.168-.1-.117c-.053-.06-.106-.12-.159-.179l-.087-.1q-.119-.131-.242-.259l-.093-.1-.164-.168-.113-.112-.152-.149-.117-.112-.16-.149-.112-.1q-.115-.1-.231-.205l-.121-.1-.192-.162-.125-.1-.163-.131-.132-.1-.165-.126-.131-.1-.191-.139-.127-.092q-.133-.094-.268-.186l-.133-.089-.175-.115-.146-.093-.171-.107-.147-.09-.183-.108-.137-.08q-.151-.087-.3-.17L308,98.751l-.191-.1-.156-.079-.179-.089-.159-.077-.185-.086-.155-.071-.235-.1-.21-.089-.221-.09-.162-.063-.189-.072-.169-.062L305.6,97.7l-.167-.057-.212-.069-.146-.047c1.112,1.384,2.687,3.473,2.565,4.053a2.768,2.768,0,0,0,.426,1.748,16.748,16.748,0,0,1,3.473,9.222c.756-.439,1.536-.843,2.022-.387,1.935,1.812.083,9.319-.893,12.637h0a16.89,16.89,0,0,0,2.146-3.022l.021-.037q.078-.141.153-.284l.031-.059q.071-.136.14-.274l.037-.074q.066-.133.129-.268l.039-.083q.061-.132.121-.265l.039-.09c.039-.088.077-.177.114-.266l.037-.09c.037-.09.073-.18.109-.271l.031-.083c.036-.094.072-.188.106-.283l.018-.052q.176-.49.322-.993l.016-.054c.023-.081.045-.162.067-.243.013-.048.027-.1.039-.145.019-.073.037-.146.055-.22.014-.057.028-.115.042-.172s.032-.14.047-.21.027-.124.04-.186.028-.136.041-.2.025-.13.037-.2.024-.133.035-.2.023-.136.034-.2.02-.13.03-.2.02-.141.03-.211.017-.128.025-.192.017-.146.025-.219.014-.125.02-.188.014-.153.02-.229c.005-.06.01-.12.015-.181.006-.081.011-.162.015-.244,0-.057.007-.113.01-.17,0-.091.007-.182.01-.273,0-.048,0-.095,0-.143q.005-.205.005-.412s0,0,0-.007Z" transform="translate(-274.091 -87.624)"/><g transform="translate(0 2.24)"><path class="e" d="M2.715,43.8c.017,0,.035.006.052.008l.02,0h0a.765.765,0,0,0,.087.005h0a.753.753,0,0,0,.11-.009H3a.759.759,0,0,0,.11-.026h0a.764.764,0,0,0,.232-.12l3.4-2.412a.763.763,0,0,0-.883-1.245L3.922,41.382a22.508,22.508,0,0,1,19-17.814.763.763,0,0,0-.2-1.512,24.032,24.032,0,0,0-20.247,18.8l-1.052-1.8A.763.763,0,1,0,.1,39.817l2.114,3.626A.762.762,0,0,0,2.715,43.8Z" transform="translate(0 -22.049)"/><path class="e" d="M40.977,299.834a.763.763,0,1,0-1.245.883l1.4,1.979A22.518,22.518,0,0,1,23.26,284a.763.763,0,0,0-1.509.227,24.043,24.043,0,0,0,18.779,19.9l-1.757,1.024a.763.763,0,1,0,.768,1.318l3.626-2.114a.763.763,0,0,0,.238-1.1Z" transform="translate(-19.534 -256.814)"/></g><g transform="translate(27.989 0)"><path class="f" d="M302.706,279.588l-2.114-3.626a.763.763,0,0,0-1.1-.238l-3.423,2.428a.763.763,0,1,0,.882,1.245l1.891-1.341a22.514,22.514,0,0,1-19.019,17.879.763.763,0,0,0,.1,1.519.772.772,0,0,0,.1-.007,24.04,24.04,0,0,0,20.28-18.943l1.08,1.853a.763.763,0,0,0,1.318-.769Z" transform="translate(-278.799 -247.594)"/><path class="f" d="M278.773,7.064a.763.763,0,0,0,.622-1.2l-1.311-1.848A22.507,22.507,0,0,1,295.9,23.34a.763.763,0,0,0,1.515-.182A24.032,24.032,0,0,0,278.455,2.53l1.9-1.108A.763.763,0,1,0,279.586.1l-3.626,2.114a.763.763,0,0,0-.238,1.1l2.428,3.424A.762.762,0,0,0,278.773,7.064Z" transform="translate(-275.582 0)"/></g></g></svg>