<svg xmlns="http://www.w3.org/2000/svg" width="25.244" height="18.298" viewBox="0 0 25.244 18.298"><defs><style>.a,.b{fill:none;}.b{stroke:rgba(255,255,255,0.82);stroke-linejoin:round;stroke-width:2px;opacity:0.93;}</style></defs><g transform="translate(0.992 1)"><path class="a" d="M33.009,27.48c-2.128-1.137-4.166-2.183-6.248-3.274v6.53c2.192-1.191,4.5-2.283,6.257-3.256Z" transform="translate(-17.549 -19.568)"/><path class="a" d="M33.009,27.48c-2.128-1.137-6.248-3.274-6.248-3.274L32.255,27.9Z" transform="translate(-17.549 -19.568)"/><path class="b" d="M14.98,29.714a47.152,47.152,0,0,1-6.858-.346,3.014,3.014,0,0,1-1.573-.818A3.312,3.312,0,0,1,5.8,27.113,9.4,9.4,0,0,1,5.485,25a50.118,50.118,0,0,1,0-6.84C5.627,16.9,5.7,15.4,6.64,14.525a3.1,3.1,0,0,1,1.546-.782,85.386,85.386,0,0,1,8.8-.309,85.542,85.542,0,0,1,8.8.309,3.026,3.026,0,0,1,1.81,1.073,9.008,9.008,0,0,1,.964,4.357c.036.628.036,4.193,0,4.821A11.016,11.016,0,0,1,28,27.577a2.641,2.641,0,0,1-.637,1.019,3.051,3.051,0,0,1-1.619.828c-3.825.288-7.073.35-10.759.291Zm5.857-8.367c-2.128-1.137-4.166-2.192-6.248-3.283v6.53c2.192-1.191,4.5-2.283,6.257-3.256l-.009.009Z" transform="translate(-5.368 -13.434)"/></g></svg>